<svg width="24" height="25" viewBox="0 0 24 25" fill="none" xmlns="http://www.w3.org/2000/svg">
<path d="M5.31195 21.5092C4.22664 21.7146 3.18036 21.0012 2.97503 19.9159C2.92855 19.6702 2.92855 19.418 2.97503 19.1723L3.635 15.6839C3.70972 15.289 3.9017 14.9257 4.18592 14.6415L15.9032 2.92418C16.5119 2.31546 17.4419 2.16455 18.2119 2.54954L18.9814 2.93431C20.0929 3.49006 20.9942 4.39134 21.55 5.50284L21.9347 6.27239C22.3197 7.04237 22.1688 7.97231 21.5601 8.58103L9.84278 20.2983C9.55856 20.5826 9.19529 20.7745 8.80035 20.8493L5.31195 21.5092ZM15.3529 6.30436L18.1813 9.13278L20.1459 7.16682L19.7611 6.39727C19.3989 5.67282 18.8114 5.08539 18.087 4.72316L17.3174 4.33839L15.3529 6.30436ZM5.5538 16.3043L8.18141 18.9319L8.42856 18.8841L16.7671 10.547L13.9387 7.71857L5.60014 16.0557L5.5538 16.3043Z" fill="#4A4A4A"/>
</svg>
