<svg width="24" height="24" viewBox="0 0 24 24" fill="none" xmlns="http://www.w3.org/2000/svg">
<path d="M11.8848 17.1003L6.38821 19.9519C6.31467 19.9901 6.22413 19.9614 6.18598 19.8879C6.17105 19.8591 6.16585 19.8262 6.17115 19.7942L7.18472 13.6855C7.19803 13.6052 7.17149 13.5235 7.11357 13.4665L2.70292 9.12012C2.64391 9.06197 2.64321 8.967 2.70136 8.90799C2.72412 8.88489 2.75376 8.86979 2.78583 8.86495L8.90884 7.94119C8.98925 7.92906 9.05874 7.87858 9.09512 7.80585L11.8658 2.26798C11.9029 2.19389 11.993 2.16388 12.067 2.20094C12.0961 2.21545 12.1196 2.23897 12.1341 2.26798L14.9047 7.80585C14.9411 7.87858 15.0106 7.92906 15.091 7.94119L21.214 8.86495C21.296 8.87731 21.3523 8.95374 21.34 9.03565C21.3351 9.06772 21.32 9.09735 21.2969 9.12012L16.8863 13.4665C16.8284 13.5235 16.8018 13.6052 16.8151 13.6855L17.8287 19.7942C17.8423 19.876 17.787 19.9532 17.7053 19.9668C17.6733 19.9721 17.6404 19.9669 17.6117 19.9519L12.1151 17.1003C12.0429 17.0628 11.957 17.0628 11.8848 17.1003Z" fill="#4A4A4A" stroke="#4A4A4A" stroke-width="1.5" stroke-linejoin="round"/>
</svg>
