<svg width="24" height="25" viewBox="0 0 24 25" fill="none" xmlns="http://www.w3.org/2000/svg">
<path d="M12 3.5C13.8639 3.5 15.4301 4.77489 15.874 6.50024L20 6.5C20.5523 6.5 21 6.94772 21 7.5C21 8.05228 20.5523 8.5 20 8.5H18.864L18.0622 20.5665C18.0272 21.0918 17.5909 21.5 17.0644 21.5H6.93555C6.40909 21.5 5.97279 21.0918 5.93777 20.5665L5.133 8.5H4C3.44772 8.5 3 8.05228 3 7.5C3 6.94772 3.44772 6.5 4 6.5L8.12595 6.50024C8.56991 4.77489 10.1361 3.5 12 3.5ZM16.861 8.5H7.136L7.871 19.5H16.128L16.861 8.5ZM12 5.5C11.2971 5.5 10.6789 5.86261 10.3222 6.41098L10.268 6.5H13.731L13.6778 6.41098C13.3466 5.90178 12.7899 5.55275 12.1493 5.50549L12 5.5Z" fill="#4A4A4A"/>
</svg>
