<svg width="24" height="24" viewBox="0 0 24 24" fill="none" xmlns="http://www.w3.org/2000/svg">
<path d="M11.195 1.93256L8.53993 7.23801L2.67394 8.12351C2.48154 8.15254 2.30373 8.24314 2.16715 8.38173L2.08729 8.47449C1.8214 8.82921 1.85196 9.33468 2.1765 9.65449L6.40193 13.817L5.43127 19.6717C5.39942 19.8636 5.43064 20.0607 5.52025 20.2334L5.57846 20.3304C5.83212 20.6988 6.32633 20.8291 6.7336 20.6179L11.9999 17.886L17.2663 20.6179C17.439 20.7075 17.6361 20.7387 17.828 20.7068L17.9383 20.6814C18.367 20.554 18.6437 20.1243 18.5686 19.6717L17.5969 13.817L21.8234 9.65449C21.962 9.51791 22.0526 9.3401 22.0816 9.1477L22.0915 9.03502C22.1028 8.58793 21.7796 8.19196 21.3259 8.12351L15.4589 7.23801L12.8048 1.93256C12.7178 1.75855 12.5766 1.61743 12.4026 1.53037C11.9581 1.30797 11.4174 1.48804 11.195 1.93256ZM11.9999 3.67501L14.234 8.14159L14.2946 8.24639C14.4497 8.48059 14.6977 8.64051 14.9791 8.68297L19.9159 9.42701L16.3599 12.9324L16.2789 13.0225C16.1041 13.2423 16.0287 13.5276 16.0753 13.8084L16.8919 18.733L12.4605 16.4347L12.3498 16.3855C12.0867 16.2872 11.7921 16.3036 11.5394 16.4347L7.10693 18.733L7.92461 13.8084L7.93717 13.688C7.94935 13.4073 7.84272 13.1322 7.63999 12.9324L4.08293 9.42701L9.02072 8.68297C9.34237 8.63444 9.62032 8.4325 9.76586 8.14159L11.9999 3.67501Z" fill="#4A4A4A"/>
</svg>
