<svg width="32" height="32" viewBox="0 0 32 32" fill="none" xmlns="http://www.w3.org/2000/svg">
<rect width="32" height="32" fill="white"/>
<path fill-rule="evenodd" clip-rule="evenodd" d="M16 30.4C23.9529 30.4 30.4 23.9529 30.4 16C30.4 8.0471 23.9529 1.6 16 1.6C8.0471 1.6 1.6 8.0471 1.6 16C1.6 23.9529 8.0471 30.4 16 30.4ZM16 32C24.8366 32 32 24.8366 32 16C32 7.16344 24.8366 0 16 0C7.16344 0 0 7.16344 0 16C0 24.8366 7.16344 32 16 32Z" fill="#4A4A4A"/>
<path fill-rule="evenodd" clip-rule="evenodd" d="M7.19998 29.2C6 28.4 4.8 27.6 4.02959 26.4C4.20869 25.6055 4.8781 25.102 5.81261 24.6497C6.91116 24.1187 11.8457 22.7258 11.8457 22.7258C11.8457 25.9374 16.1115 25.8904 16.1115 25.8904C16.1115 25.8904 20.3771 25.9374 20.3771 22.7258C20.3771 22.7258 25.3113 24.1187 26.4098 24.6497C27.134 25.0002 28 25.905 28 25.905C28 25.905 28 26 28 26.4C27.4644 27.1351 26.0208 28.5033 24.8 29.2C23.0804 30.1814 19.3863 30.8246 15.8269 30.8C12.4005 30.7763 8.39997 30 7.19998 29.2Z" fill="#4A4A4A"/>
<path fill-rule="evenodd" clip-rule="evenodd" d="M21.9054 13.4702C21.3386 14.2413 22.2243 17.652 20.8981 18.8986C20.123 19.6274 17.9488 21.8415 16.1598 21.8415H16.1371C14.3482 21.8415 12.1685 19.8436 11.5018 19.013C8.55106 15.3359 10.8053 14.3012 10.4634 13.5125C11.0004 14.7513 11.3854 16.9996 12.4335 18.537C12.9945 19.3599 14.0428 19.8674 15.1086 20.0192L15.1107 20.0198L15.1264 20.0236C15.2241 20.0425 15.6788 20.0586 15.3385 18.6025H16.9751C16.6348 20.0586 17.0895 20.0425 17.1872 20.0236L17.2029 20.0198C18.0661 19.8755 19.024 19.6085 19.5112 18.9205C20.6663 17.2891 21.0393 14.6486 21.9054 13.4702ZM16.1675 16.8428C16.3793 16.8428 16.3922 16.6509 16.6448 16.7665C17.5321 17.1722 18.052 17.3169 18.352 17.3918L18.4675 17.4202C18.7248 17.4834 18.7537 17.4978 18.7353 17.6989C18.7054 18.0257 18.19 18.2543 17.4182 17.9941L17.3326 18.0376C17.2574 18.0741 17.1785 18.1237 17.0867 18.1532C16.9959 18.1855 16.9003 18.2238 16.7981 18.2516C16.6945 18.2729 16.5882 18.3037 16.4776 18.3186C16.3664 18.3273 16.2536 18.345 16.1397 18.3458C16.026 18.3416 15.9121 18.3441 15.8011 18.3277C15.6893 18.3197 15.5817 18.2948 15.4783 18.2703C15.3736 18.2514 15.278 18.2098 15.1859 18.1808C15.0958 18.1436 15.0108 18.1098 14.9371 18.0677C14.9003 18.0489 14.8657 18.0297 14.8334 18.0107C14.0805 18.2035 13.5152 17.8831 13.4857 17.5673C13.4479 17.1613 13.7255 17.6649 15.6902 16.7665C15.9428 16.6509 15.9556 16.8428 16.1675 16.8428ZM17.1061 17.8677C16.4378 17.5529 16.6187 17.7735 16.1675 17.7735C15.7163 17.7735 15.8972 17.5529 15.2291 17.8677C15.1881 17.887 15.1475 17.9048 15.1073 17.921L15.0008 17.8973C15.0771 17.9189 15.163 17.9304 15.2498 17.9527C15.3396 17.9649 15.4318 17.9853 15.5289 17.995C15.6252 18.0097 15.7254 18.0152 15.8269 18.0214C15.928 18.0331 16.0316 18.0265 16.1346 18.0271C16.2378 18.0295 16.3408 18.0167 16.4425 18.0127C16.544 18.0006 16.6439 17.9887 16.7405 17.977C16.837 17.9591 16.9303 17.9417 17.0188 17.9253C17.069 17.9171 17.1166 17.9047 17.1626 17.8925L17.1061 17.8677ZM15.0155 15.7758C15.0155 15.7758 15.1599 15.799 15.3739 15.8169C15.5878 15.8369 15.8715 15.8522 16.1551 15.8513C16.4388 15.853 16.7227 15.8349 16.9371 15.8177C17.0447 15.8105 17.1349 15.8035 17.1979 15.7969C17.2612 15.7916 17.2982 15.7905 17.2982 15.7905C17.2982 15.7905 17.2645 15.8052 17.2044 15.8271C17.1441 15.8473 17.0588 15.8828 16.9522 15.9079C16.8465 15.9383 16.7204 15.9614 16.5844 15.9816C16.4484 15.9999 16.302 16.0091 16.1553 16.0108C16.0086 16.0082 15.8617 16.002 15.7257 15.9814C15.5893 15.964 15.4636 15.9359 15.3577 15.9064C15.1985 15.8613 15.0856 15.8104 15.0391 15.7878L15.0155 15.7758ZM19.0397 11.5849C19.2618 11.5839 19.4848 11.5907 19.6914 11.6221C19.7952 11.6332 19.8946 11.651 19.9879 11.6731C20.0815 11.6927 20.1697 11.7114 20.249 11.7388C20.4097 11.7841 20.5377 11.839 20.626 11.8791C20.7147 11.9183 20.7639 11.9431 20.7639 11.9431L20.7383 11.9395C20.7133 11.9357 20.6707 11.929 20.614 11.9187C20.5672 11.9098 20.5104 11.8989 20.4451 11.8866C20.3786 11.8791 20.3042 11.8708 20.2244 11.8583C20.1445 11.8445 20.0562 11.8402 19.9644 11.83C19.8726 11.819 19.775 11.8141 19.6744 11.8086C19.6013 11.8021 19.5263 11.8005 19.4501 11.799C19.6506 11.935 19.7823 12.1664 19.7823 12.429C19.7823 12.8487 19.4462 13.1888 19.0311 13.1888C18.6162 13.1888 18.2802 12.8487 18.2802 12.429C18.2802 12.1753 18.403 11.9507 18.5919 11.8128L18.7221 11.8062C18.6162 11.8126 18.5119 11.819 18.4108 11.8249C18.2091 11.8415 18.0201 11.8579 17.8581 11.8764C17.696 11.8951 17.5594 11.9078 17.4649 11.9229C17.3694 11.9359 17.3148 11.9431 17.3148 11.9431C17.3148 11.9431 17.5151 11.846 17.8356 11.7571C17.9953 11.7112 18.1851 11.6717 18.3904 11.6396C18.596 11.6083 18.8175 11.5896 19.0397 11.5849ZM13.1233 11.5849C13.3454 11.5839 13.5684 11.5907 13.775 11.6221C13.8788 11.6332 13.9782 11.651 14.0713 11.6731C14.1651 11.6927 14.2534 11.7114 14.3326 11.7388C14.4934 11.7841 14.6214 11.839 14.7096 11.8791C14.7983 11.9183 14.8475 11.9431 14.8475 11.9431L14.8219 11.9395C14.7969 11.9357 14.7543 11.929 14.6977 11.9187C14.6508 11.9098 14.594 11.8989 14.5287 11.8866C14.4623 11.8791 14.3879 11.8708 14.3078 11.8583C14.2281 11.8445 14.1399 11.8402 14.048 11.83C13.9562 11.819 13.8587 11.8141 13.7578 11.8086C13.685 11.8021 13.6101 11.8005 13.5341 11.799C13.7342 11.935 13.8659 12.1664 13.8659 12.429C13.8659 12.8487 13.5298 13.1888 13.1147 13.1888C12.6998 13.1888 12.3638 12.8487 12.3638 12.429C12.3638 12.1753 12.4866 11.9507 12.6755 11.8128L12.8057 11.8062C12.6998 11.8126 12.5955 11.819 12.4944 11.8249C12.2927 11.8415 12.1037 11.8579 11.9417 11.8764C11.7797 11.8951 11.6431 11.9078 11.5485 11.9229C11.4912 11.9307 11.4487 11.9364 11.4238 11.9398L11.3984 11.9431L11.4272 11.9299C11.4934 11.9004 11.6699 11.8262 11.9192 11.7571C12.0787 11.7112 12.2687 11.6717 12.4741 11.6396C12.6796 11.6083 12.9011 11.5896 13.1233 11.5849Z" fill="#4A4A4A"/>
<path fill-rule="evenodd" clip-rule="evenodd" d="M7.67546 19.0507C7.67546 19.0507 7.99044 19.0028 8.30863 18.8432C8.13624 18.3062 7.8089 17.5145 7.73538 17.0612C7.64486 16.5048 8.20857 15.2107 8.60103 14.418L8.60206 14.4154L8.54873 14.4495C8.51702 14.4666 8.48357 14.4817 8.44827 14.4944C8.02397 14.6469 7.61504 14.783 7.42711 14.8447L7.34776 14.8707C7.32944 14.8767 7.31966 14.8798 7.31966 14.8798C7.31966 14.8798 7.92054 14.0865 8.1471 13.1258C8.36923 12.1826 9.25379 8.37151 9.30415 8.1545L9.30639 8.14485C9.30639 8.14485 10.1219 2.36736 16.8147 2.92349C16.8147 2.92349 18.5801 3.20708 19.4233 4.05275L19.4486 4.0431C19.5883 3.99234 20.2777 3.77554 20.764 4.23813C21.3073 4.75493 22.3232 6.3842 22.7448 8.65463L22.7457 8.65888C22.7457 8.65888 23.1821 10.6774 23.5254 12.069L23.6058 12.3896C23.6838 12.6955 23.754 12.9531 23.8091 13.1258C24.0766 13.9639 24.4271 14.4289 24.5059 14.5267L24.522 14.5463C24.522 14.5463 23.8533 14.724 23.3659 14.346L23.2853 14.2802L23.2948 14.2972C23.6864 15.0725 24.316 16.4755 24.2209 17.0612C24.1179 17.6949 23.5193 18.9898 23.5391 19.3286C23.5588 19.6675 23.6576 20.1626 23.7862 20.2147C23.8609 20.2451 23.495 20.2285 23.0804 19.9211C23.3269 20.2872 23.5985 20.5811 23.5985 20.5811C23.5985 20.5811 23.5663 20.5665 23.5121 20.5402L23.3774 20.473C23.114 20.3382 22.6813 20.0966 22.4561 19.8609L22.4421 19.8442L22.4897 19.9421C22.7225 20.4266 22.9457 20.9884 22.9337 21.2967L22.9245 21.3743C22.8341 21.7903 22.526 22.6662 22.5435 22.8885C22.5609 23.1109 22.6477 23.436 22.7608 23.4702C22.852 23.4978 22.1922 23.3811 21.7101 22.8286C21.6312 22.8817 21.5326 22.9457 21.4186 23.014L21.422 23.024C21.6017 23.4005 21.8251 23.8433 21.8251 23.8433C21.8251 23.8433 21.162 23.7049 21.0189 23.4243C20.9938 23.3751 20.9478 23.3333 20.8907 23.2969C20.3887 23.5351 19.7637 23.742 19.1388 23.7162L18.7207 20.7628C18.7207 20.7628 19.8525 19.301 20.139 18.7277C20.4256 18.1543 21.0025 16.1026 21.2692 14.6084L21.6513 12.2686C21.6513 12.2686 20.6932 10.4729 20.5484 9.11765C20.4033 7.7624 20.2545 7.68119 19.991 7.53068L19.983 7.52622C19.5404 7.276 19.0602 6.99645 18.7359 7.39059C18.4893 7.69033 18.1182 8.01453 17.5839 8.20246C16.3981 8.61955 14.448 8.44226 13.6575 8.7318C13.5359 8.77638 13.3977 8.82085 13.2501 8.86938L13.0226 8.94574C12.2467 9.21391 11.3264 9.63564 11.1643 10.7316C10.9535 12.1564 11.108 13.2793 10.7866 13.6483C10.5088 13.9674 10.5613 14.6113 10.5613 14.6113C10.828 16.1056 11.6141 18.169 11.9005 18.7425C12.1872 19.3159 13.1027 20.5291 13.1027 20.5291L12.8175 23.7162C11.8691 23.7553 11.0573 23.2534 10.6307 22.924L10.6546 22.8905C10.5115 23.1711 9.8484 23.3095 9.8484 23.3095C9.8484 23.3095 9.86955 23.2675 9.90407 23.1985L9.96491 23.0765C10.0453 22.9148 10.1547 22.6929 10.2515 22.4902C10.4011 22.1764 10.3114 21.9197 10.2774 21.8428L10.266 21.8192C9.8402 22.7831 8.79965 22.9706 8.91273 22.9364C9.0258 22.9022 9.1126 22.5771 9.13004 22.3547C9.14748 22.1324 8.83938 21.2565 8.74879 20.8405C8.70027 20.6174 8.82606 20.2182 8.99539 19.8244C8.53552 20.2248 8.08822 20.248 8.17001 20.2147C8.29842 20.1626 8.39741 19.6675 8.41717 19.3286C8.42029 19.2751 8.40796 19.1977 8.38459 19.1027C8.01624 19.1069 7.67546 19.0507 7.67546 19.0507ZM22.0095 19.072L21.9956 19.1116C21.9685 19.1852 21.9484 19.2671 21.9418 19.3557C22.072 19.4042 22.2295 19.5063 22.3488 19.721L22.3951 19.7904L22.4421 19.8442L22.4262 19.8121C22.2455 19.4489 22.0714 19.1506 22.0095 19.072ZM9.09328 13.575C9.09328 13.575 9.08908 13.5616 8.94406 13.7759C8.90652 13.8314 8.79856 14.0258 8.66145 14.2972L8.60206 14.4154L8.63867 14.3925C8.97817 14.1433 9.07826 13.6576 9.09165 13.5843L9.09328 13.575Z" fill="#4A4A4A"/>
</svg>
